<svg xmlns="http://www.w3.org/2000/svg" width="1100" height="620" viewBox="0 0 1100 620" font-family="ui-monospace, SFMono-Regular, Menlo, monospace" font-size="11">
<rect x="0" y="0" width="1100" height="620" fill="#fafafa"/>
<rect x="70" y="30" width="810" height="540" fill="white" stroke="#666" stroke-width="0.5"/>
<line x1="70" y1="570" x2="880" y2="570" stroke="#eee" stroke-width="0.5"/>
<text x="64" y="573" text-anchor="end" fill="#666">1.14412</text>
<line x1="70" y1="480" x2="880" y2="480" stroke="#eee" stroke-width="0.5"/>
<text x="64" y="483" text-anchor="end" fill="#666">1.14439</text>
<line x1="70" y1="390" x2="880" y2="390" stroke="#eee" stroke-width="0.5"/>
<text x="64" y="393" text-anchor="end" fill="#666">1.14466</text>
<line x1="70" y1="300" x2="880" y2="300" stroke="#eee" stroke-width="0.5"/>
<text x="64" y="303" text-anchor="end" fill="#666">1.14494</text>
<line x1="70" y1="210" x2="880" y2="210" stroke="#eee" stroke-width="0.5"/>
<text x="64" y="213" text-anchor="end" fill="#666">1.14521</text>
<line x1="70" y1="120" x2="880" y2="120" stroke="#eee" stroke-width="0.5"/>
<text x="64" y="123" text-anchor="end" fill="#666">1.14548</text>
<line x1="70" y1="30" x2="880" y2="30" stroke="#eee" stroke-width="0.5"/>
<text x="64" y="33" text-anchor="end" fill="#666">1.14575</text>
<text x="171.24974687478908" y="584" text-anchor="middle" fill="#666">01:00</text>
<text x="171.24974687478908" y="598" text-anchor="middle" fill="#666" font-size="9">#0</text>
<text x="373.7499156249297" y="584" text-anchor="middle" fill="#666">01:05</text>
<text x="373.7499156249297" y="598" text-anchor="middle" fill="#666" font-size="9">#1</text>
<text x="576.2500843750703" y="584" text-anchor="middle" fill="#666">01:10</text>
<text x="576.2500843750703" y="598" text-anchor="middle" fill="#666" font-size="9">#2</text>
<text x="778.750253125211" y="584" text-anchor="middle" fill="#666">01:15</text>
<text x="778.750253125211" y="598" text-anchor="middle" fill="#666" font-size="9">#3</text>
<line x1="171.24974687478908" y1="67.24137931032209" x2="171.24974687478908" y2="298.3492296404878" stroke="#ef5350" stroke-width="1"/>
<rect x="110.4996962497469" y="123.3675715333697" width="121.50010125008437" height="141.96625091709444" fill="#ef5350" stroke="#ef5350" stroke-width="0.5"/>
<line x1="373.7499156249297" y1="265.33382245046414" x2="373.7499156249297" y2="397.3954512105588" stroke="#ef5350" stroke-width="1"/>
<rect x="312.9998649998875" y="271.93690388851286" width="121.50010125008437" height="118.85546588407061" fill="#ef5350" stroke="#ef5350" stroke-width="0.5"/>
<line x1="576.2500843750703" y1="347.87234042555997" x2="576.2500843750703" y2="496.4416727807032" stroke="#ef5350" stroke-width="1"/>
<rect x="515.5000337500281" y="390.79236977258347" width="121.50010125008437" height="59.42773294207194" fill="#ef5350" stroke="#ef5350" stroke-width="0.5"/>
<line x1="778.750253125211" y1="387.4908290535591" x2="778.750253125211" y2="532.758620689678" stroke="#26a69a" stroke-width="1"/>
<rect x="718.0002025001688" y="410.601614086583" width="121.50010125008437" height="36.316947909048" fill="#26a69a" stroke="#26a69a" stroke-width="0.5"/>
<rect x="677.5005062504218" y="387.4908290535591" width="202.49949374957816" height="145.2677916361189" fill="#1976d2" fill-opacity="0.07" stroke="#2e7d32" stroke-width="1.2" stroke-dasharray="none"/>
<text x="680.5005062504218" y="385.4908290535591" fill="#2e7d32" font-weight="600">r=0 rC=0 00000003</text>
<rect x="475.00033750028126" y="347.87234042555997" width="404.99966249971874" height="184.886280264118" fill="#c62828" fill-opacity="0.07" stroke="#2e7d32" stroke-width="1.2" stroke-dasharray="none"/>
<text x="478.00033750028126" y="345.87234042555997" fill="#2e7d32" font-weight="600">r=1 rC=1 00000002</text>
<rect x="272.50016875014063" y="265.33382245046414" width="404.9996624997188" height="231.10785033023905" fill="#c62828" fill-opacity="0.07" stroke="#2e7d32" stroke-width="1.2" stroke-dasharray="none"/>
<text x="275.50016875014063" y="263.33382245046414" fill="#d84315" font-weight="600">r=2 rC=1 00000001</text>
<rect x="70" y="67.24137931032209" width="404.99966249971874" height="330.1540719002367" fill="#c62828" fill-opacity="0.07" stroke="#2e7d32" stroke-width="1.2" stroke-dasharray="none"/>
<text x="73" y="65.24137931032209" fill="#d84315" font-weight="600">r=3 rC=1 00000000</text>
<line x1="70" y1="265.33382245046414" x2="880" y2="265.33382245046414" stroke="#7b1fa2" stroke-width="1.2" stroke-dasharray="6 4"/>
<text x="876" y="261.33382245046414" text-anchor="end" fill="#7b1fa2" font-weight="600">ref top r=3 : 1.14504</text>
<text x="900" y="34" font-size="13" font-weight="700" fill="#222">Étape 4/12</text>
<text x="900" y="52" fill="#444">Bougie #3 @ 01:15:00</text>
<text x="900" y="66" fill="#444" font-size="10">O=1.14449 H=1.14467</text>
<text x="900" y="78" fill="#444" font-size="10">L=1.14423 C=1.1446</text>
<text x="900" y="96" font-weight="600" fill="#222">État des PriceMoves</text>
<rect x="900" y="101" width="14" height="10" fill="none" stroke="#2e7d32" stroke-width="1.2"/>
<text x="920" y="110" fill="#444">growing</text>
<rect x="900" y="115" width="14" height="10" fill="none" stroke="#ef6c00" stroke-width="1.2"/>
<text x="920" y="124" fill="#444">reference</text>
<rect x="900" y="129" width="14" height="10" fill="none" stroke="#9e9e9e" stroke-width="1.2"/>
<text x="920" y="138" fill="#444">archived</text>
<text x="900" y="158" font-weight="600" fill="#222">Polarité (remplissage)</text>
<rect x="900" y="163" width="14" height="10" fill="#1976d2" fill-opacity="0.25"/>
<text x="920" y="172" fill="#444">up</text>
<rect x="900" y="177" width="14" height="10" fill="#c62828" fill-opacity="0.25"/>
<text x="920" y="186" fill="#444">down</text>
<text x="900" y="208" font-weight="600" fill="#222">4 moves connus</text>
<text x="900" y="222" fill="#444">rang max : 3</text>
<text x="900" y="236" fill="#444" font-size="10">growing=4 reference=0</text>
</svg>