<svg xmlns="http://www.w3.org/2000/svg" width="1100" height="620" viewBox="0 0 1100 620" font-family="ui-monospace, SFMono-Regular, Menlo, monospace" font-size="11">
<rect x="0" y="0" width="1100" height="620" fill="#fafafa"/>
<rect x="70" y="30" width="810" height="540" fill="white" stroke="#666" stroke-width="0.5"/>
<line x1="70" y1="570" x2="880" y2="570" stroke="#eee" stroke-width="0.5"/>
<text x="64" y="573" text-anchor="end" fill="#666">1.14407</text>
<line x1="70" y1="480.00000000003564" x2="880" y2="480.00000000003564" stroke="#eee" stroke-width="0.5"/>
<text x="64" y="483.00000000003564" text-anchor="end" fill="#666">1.14435</text>
<line x1="70" y1="390" x2="880" y2="390" stroke="#eee" stroke-width="0.5"/>
<text x="64" y="393" text-anchor="end" fill="#666">1.14463</text>
<line x1="70" y1="299.9999999999643" x2="880" y2="299.9999999999643" stroke="#eee" stroke-width="0.5"/>
<text x="64" y="302.9999999999643" text-anchor="end" fill="#666">1.14492</text>
<line x1="70" y1="210" x2="880" y2="210" stroke="#eee" stroke-width="0.5"/>
<text x="64" y="213" text-anchor="end" fill="#666">1.14520</text>
<line x1="70" y1="120.00000000003564" x2="880" y2="120.00000000003564" stroke="#eee" stroke-width="0.5"/>
<text x="64" y="123.00000000003564" text-anchor="end" fill="#666">1.14548</text>
<line x1="70" y1="30" x2="880" y2="30" stroke="#eee" stroke-width="0.5"/>
<text x="64" y="33" text-anchor="end" fill="#666">1.14576</text>
<text x="137.49981249989582" y="584" text-anchor="middle" fill="#666">01:00</text>
<text x="137.49981249989582" y="598" text-anchor="middle" fill="#666" font-size="9">#0</text>
<text x="272.4998874999375" y="584" text-anchor="middle" fill="#666">01:05</text>
<text x="272.4998874999375" y="598" text-anchor="middle" fill="#666" font-size="9">#1</text>
<text x="407.4999624999792" y="584" text-anchor="middle" fill="#666">01:10</text>
<text x="407.4999624999792" y="598" text-anchor="middle" fill="#666" font-size="9">#2</text>
<text x="542.5000375000209" y="584" text-anchor="middle" fill="#666">01:15</text>
<text x="542.5000375000209" y="598" text-anchor="middle" fill="#666" font-size="9">#3</text>
<text x="677.5001125000624" y="584" text-anchor="middle" fill="#666">01:20</text>
<text x="677.5001125000624" y="598" text-anchor="middle" fill="#666" font-size="9">#4</text>
<text x="812.5001875001042" y="584" text-anchor="middle" fill="#666">01:25</text>
<text x="812.5001875001042" y="598" text-anchor="middle" fill="#666" font-size="9">#5</text>
<line x1="137.49981249989582" y1="67.24137931034733" x2="137.49981249989582" y2="291.9738406658568" stroke="#ef5350" stroke-width="1"/>
<rect x="96.99978999988332" y="121.81926278240672" width="81.000045000025" height="138.04994054694873" fill="#ef5350" stroke="#ef5350" stroke-width="0.5"/>
<line x1="272.4998874999375" y1="259.86920332935546" x2="272.4998874999375" y2="388.28775267536093" stroke="#ef5350" stroke-width="1"/>
<rect x="231.99986499992497" y="266.2901307966985" width="81.000045000025" height="115.57669441139063" fill="#ef5350" stroke="#ef5350" stroke-width="0.5"/>
<line x1="407.4999624999792" y1="340.1307966706445" x2="407.4999624999792" y2="484.6016646849363" stroke="#ef5350" stroke-width="1"/>
<rect x="366.99993999996667" y="381.86682520808915" width="81.000045000025" height="57.788347205730986" fill="#ef5350" stroke="#ef5350" stroke-width="0.5"/>
<line x1="542.5000375000209" y1="378.6563614744176" x2="542.5000375000209" y2="519.9167657550379" stroke="#26a69a" stroke-width="1"/>
<rect x="502.0000150000084" y="401.1296076099758" width="81.000045000025" height="35.31510107017289" fill="#26a69a" stroke="#26a69a" stroke-width="0.5"/>
<line x1="677.5001125000624" y1="397.9191438763755" x2="677.5001125000624" y2="532.7586206896527" stroke="#ef5350" stroke-width="1"/>
<rect x="637.0000900000499" y="397.9191438763755" width="81.000045000025" height="112.36623067771916" fill="#ef5350" stroke="#ef5350" stroke-width="0.5"/>
<line x1="812.5001875001042" y1="449.2865636147634" x2="812.5001875001042" y2="523.1272294887094" stroke="#ef5350" stroke-width="1"/>
<rect x="772.0001650000917" y="503.86444708682285" width="81.000045000025" height="16.052318668215037" fill="#ef5350" stroke="#ef5350" stroke-width="0.5"/>
<rect x="475.000225000125" y="378.6563614744176" width="134.9996249997917" height="141.26040428062026" fill="#1976d2" fill-opacity="0.07" stroke="#ef6c00" stroke-width="1.2" stroke-dasharray="none"/>
<text x="478.000225000125" y="376.6563614744176" fill="#ef6c00" font-weight="600">r=0 rC=0 00000003</text>
<rect x="745.0003750002084" y="449.2865636147634" width="134.99962499979165" height="73.84066587394602" fill="#c62828" fill-opacity="0.07" stroke="#2e7d32" stroke-width="1.2" stroke-dasharray="none"/>
<text x="748.0003750002084" y="447.2865636147634" fill="#2e7d32" font-weight="600">r=0 rC=0 00000005</text>
<rect x="610.0003000001667" y="397.9191438763755" width="134.99962499979165" height="134.83947681327726" fill="#c62828" fill-opacity="0.07" stroke="#2e7d32" stroke-width="1.2" stroke-dasharray="none"/>
<text x="613.0003000001667" y="395.9191438763755" fill="#d84315" font-weight="600">r=1 rC=0 00000004</text>
<rect x="340.00015000008335" y="340.1307966706445" width="404.999774999875" height="192.62782401900824" fill="#c62828" fill-opacity="0.07" stroke="#2e7d32" stroke-width="1.2" stroke-dasharray="none"/>
<text x="343.00015000008335" y="338.1307966706445" fill="#d84315" font-weight="600">r=2 rC=1 00000002</text>
<rect x="205.00007500004168" y="259.86920332935546" width="269.9996999998333" height="224.73246135558082" fill="#c62828" fill-opacity="0.07" stroke="#2e7d32" stroke-width="1.2" stroke-dasharray="none"/>
<text x="208.00007500004168" y="257.86920332935546" fill="#d84315" font-weight="600">r=3 rC=1 00000001</text>
<rect x="70" y="67.24137931034733" width="269.99969999983335" height="321.0463733650136" fill="#c62828" fill-opacity="0.07" stroke="#2e7d32" stroke-width="1.2" stroke-dasharray="none"/>
<text x="73" y="65.24137931034733" fill="#d84315" font-weight="600">r=4 rC=1 00000000</text>
<line x1="70" y1="259.86920332935546" x2="880" y2="259.86920332935546" stroke="#7b1fa2" stroke-width="1.2" stroke-dasharray="6 4"/>
<text x="876" y="255.86920332935546" text-anchor="end" fill="#7b1fa2" font-weight="600">ref top r=4 : 1.14504</text>
<text x="900" y="34" font-size="13" font-weight="700" fill="#222">Étape 6/12</text>
<text x="900" y="52" fill="#444">Bougie #5 @ 01:25:00</text>
<text x="900" y="66" fill="#444" font-size="10">O=1.14428 H=1.14445</text>
<text x="900" y="78" fill="#444" font-size="10">L=1.14422 C=1.14423</text>
<text x="900" y="96" font-weight="600" fill="#222">État des PriceMoves</text>
<rect x="900" y="101" width="14" height="10" fill="none" stroke="#2e7d32" stroke-width="1.2"/>
<text x="920" y="110" fill="#444">growing</text>
<rect x="900" y="115" width="14" height="10" fill="none" stroke="#ef6c00" stroke-width="1.2"/>
<text x="920" y="124" fill="#444">reference</text>
<rect x="900" y="129" width="14" height="10" fill="none" stroke="#9e9e9e" stroke-width="1.2"/>
<text x="920" y="138" fill="#444">archived</text>
<text x="900" y="158" font-weight="600" fill="#222">Polarité (remplissage)</text>
<rect x="900" y="163" width="14" height="10" fill="#1976d2" fill-opacity="0.25"/>
<text x="920" y="172" fill="#444">up</text>
<rect x="900" y="177" width="14" height="10" fill="#c62828" fill-opacity="0.25"/>
<text x="920" y="186" fill="#444">down</text>
<text x="900" y="208" font-weight="600" fill="#222">6 moves connus</text>
<text x="900" y="222" fill="#444">rang max : 4</text>
<text x="900" y="236" fill="#444" font-size="10">growing=5 reference=1</text>
</svg>