<svg xmlns="http://www.w3.org/2000/svg" width="1100" height="620" viewBox="0 0 1100 620" font-family="ui-monospace, SFMono-Regular, Menlo, monospace" font-size="11">
<rect x="0" y="0" width="1100" height="620" fill="#fafafa"/>
<rect x="70" y="30" width="810" height="540" fill="white" stroke="#666" stroke-width="0.5"/>
<line x1="70" y1="570" x2="880" y2="570" stroke="#eee" stroke-width="0.5"/>
<text x="64" y="573" text-anchor="end" fill="#666">1.14383</text>
<line x1="70" y1="480" x2="880" y2="480" stroke="#eee" stroke-width="0.5"/>
<text x="64" y="483" text-anchor="end" fill="#666">1.14415</text>
<line x1="70" y1="390" x2="880" y2="390" stroke="#eee" stroke-width="0.5"/>
<text x="64" y="393" text-anchor="end" fill="#666">1.14448</text>
<line x1="70" y1="300" x2="880" y2="300" stroke="#eee" stroke-width="0.5"/>
<text x="64" y="303" text-anchor="end" fill="#666">1.14480</text>
<line x1="70" y1="210" x2="880" y2="210" stroke="#eee" stroke-width="0.5"/>
<text x="64" y="213" text-anchor="end" fill="#666">1.14512</text>
<line x1="70" y1="120" x2="880" y2="120" stroke="#eee" stroke-width="0.5"/>
<text x="64" y="123" text-anchor="end" fill="#666">1.14545</text>
<line x1="70" y1="30" x2="880" y2="30" stroke="#eee" stroke-width="0.5"/>
<text x="64" y="33" text-anchor="end" fill="#666">1.14577</text>
<text x="103.74989687497136" y="584" text-anchor="middle" fill="#666">01:00</text>
<text x="103.74989687497136" y="598" text-anchor="middle" fill="#666" font-size="9">#0</text>
<text x="171.24991562497655" y="584" text-anchor="middle" fill="#666">01:05</text>
<text x="171.24991562497655" y="598" text-anchor="middle" fill="#666" font-size="9">#1</text>
<text x="238.74993437498176" y="584" text-anchor="middle" fill="#666">01:10</text>
<text x="238.74993437498176" y="598" text-anchor="middle" fill="#666" font-size="9">#2</text>
<text x="306.249953124987" y="584" text-anchor="middle" fill="#666">01:15</text>
<text x="306.249953124987" y="598" text-anchor="middle" fill="#666" font-size="9">#3</text>
<text x="373.7499718749922" y="584" text-anchor="middle" fill="#666">01:20</text>
<text x="373.7499718749922" y="598" text-anchor="middle" fill="#666" font-size="9">#4</text>
<text x="441.2499906249974" y="584" text-anchor="middle" fill="#666">01:25</text>
<text x="441.2499906249974" y="598" text-anchor="middle" fill="#666" font-size="9">#5</text>
<text x="508.75000937500266" y="584" text-anchor="middle" fill="#666">01:30</text>
<text x="508.75000937500266" y="598" text-anchor="middle" fill="#666" font-size="9">#6</text>
<text x="576.2500281250078" y="584" text-anchor="middle" fill="#666">01:35</text>
<text x="576.2500281250078" y="598" text-anchor="middle" fill="#666" font-size="9">#7</text>
<text x="643.750046875013" y="584" text-anchor="middle" fill="#666">01:40</text>
<text x="643.750046875013" y="598" text-anchor="middle" fill="#666" font-size="9">#8</text>
<text x="711.2500656250182" y="584" text-anchor="middle" fill="#666">01:45</text>
<text x="711.2500656250182" y="598" text-anchor="middle" fill="#666" font-size="9">#9</text>
<text x="778.7500843750234" y="584" text-anchor="middle" fill="#666">01:50</text>
<text x="778.7500843750234" y="598" text-anchor="middle" fill="#666" font-size="9">#10</text>
<text x="846.2501031250287" y="584" text-anchor="middle" fill="#666">01:55</text>
<text x="846.2501031250287" y="598" text-anchor="middle" fill="#666" font-size="9">#11</text>
<line x1="103.74989687497136" y1="67.24137931036819" x2="103.74989687497136" y2="261.20689655171776" stroke="#ef5350" stroke-width="1"/>
<rect x="83.49989124996979" y="114.34729064041636" width="40.500011250003126" height="119.15024630539432" fill="#ef5350" stroke="#ef5350" stroke-width="0.5"/>
<line x1="171.24991562497655" y1="233.49753694581068" x2="171.24991562497655" y2="344.334975369439" stroke="#ef5350" stroke-width="1"/>
<rect x="150.999909999975" y="239.039408867029" width="40.500011250003126" height="99.75369458125317" fill="#ef5350" stroke="#ef5350" stroke-width="0.5"/>
<line x1="238.74993437498176" y1="302.77093596060917" x2="238.74993437498176" y2="427.4630541872218" stroke="#ef5350" stroke-width="1"/>
<rect x="218.4999287499802" y="338.7931034482822" width="40.500011250003126" height="49.876847290657395" fill="#ef5350" stroke="#ef5350" stroke-width="0.5"/>
<line x1="306.249953124987" y1="336.0221674876731" x2="306.249953124987" y2="457.94334975367656" stroke="#26a69a" stroke-width="1"/>
<rect x="285.9999474999854" y="355.41871921181416" width="40.500011250003126" height="30.480295566516247" fill="#26a69a" stroke="#26a69a" stroke-width="0.5"/>
<line x1="373.7499718749922" y1="352.64778325126656" x2="373.7499718749922" y2="469.0270935960517" stroke="#ef5350" stroke-width="1"/>
<rect x="353.4999662499906" y="352.64778325126656" width="40.500011250003126" height="96.982758620644" fill="#ef5350" stroke="#ef5350" stroke-width="0.5"/>
<line x1="441.2499906249974" y1="396.98275862070557" x2="441.2499906249974" y2="460.7142857142857" stroke="#ef5350" stroke-width="1"/>
<rect x="420.99998499999583" y="444.0886699507538" width="40.500011250003126" height="13.85467980292276" fill="#ef5350" stroke="#ef5350" stroke-width="0.5"/>
<line x1="508.75000937500266" y1="430.2339901477694" x2="508.75000937500266" y2="532.7586206896318" stroke="#ef5350" stroke-width="1"/>
<rect x="488.5000037500011" y="455.1724137931289" width="40.500011250003126" height="30.480295566454743" fill="#ef5350" stroke="#ef5350" stroke-width="0.5"/>
<line x1="576.2500281250078" y1="383.12807881772125" x2="576.2500281250078" y2="488.4236453201928" stroke="#26a69a" stroke-width="1"/>
<rect x="556.0000225000063" y="410.8374384236283" width="40.500011250003126" height="72.04433497540765" fill="#26a69a" stroke="#26a69a" stroke-width="0.5"/>
<line x1="643.750046875013" y1="352.64778325126656" x2="643.750046875013" y2="408.0665024630807" stroke="#26a69a" stroke-width="1"/>
<rect x="623.5000412500115" y="360.9605911330325" width="40.500011250003126" height="44.33497536943901" fill="#26a69a" stroke="#26a69a" stroke-width="0.5"/>
<line x1="711.2500656250182" y1="272.2906403940929" x2="711.2500656250182" y2="363.73152709358015" stroke="#26a69a" stroke-width="1"/>
<rect x="691.0000600000167" y="336.0221674876731" width="40.500011250003126" height="22.167487684750256" fill="#26a69a" stroke="#26a69a" stroke-width="0.5"/>
<line x1="778.7500843750234" y1="294.4581280788432" x2="778.7500843750234" y2="391.44088669948724" stroke="#26a69a" stroke-width="1"/>
<rect x="758.5000787500219" y="300" width="40.500011250003126" height="36.02216748767307" fill="#26a69a" stroke="#26a69a" stroke-width="0.5"/>
<line x1="846.2501031250287" y1="261.20689655171776" x2="846.2501031250287" y2="308.31280788176593" stroke="#26a69a" stroke-width="1"/>
<rect x="826.0000975000271" y="266.7487684729361" width="40.500011250003126" height="30.480295566454743" fill="#26a69a" stroke="#26a69a" stroke-width="0.5"/>
<rect x="272.50005625001563" y="336.0221674876731" width="67.49979374994274" height="121.92118226600348" fill="#1976d2" fill-opacity="0.07" stroke="#ef6c00" stroke-width="1.2" stroke-dasharray="none"/>
<text x="275.50005625001563" y="334.0221674876731" fill="#ef6c00" font-weight="600">r=0 rC=0 00000003</text>
<rect x="475.00011250003126" y="430.2339901477694" width="67.49979374994268" height="102.5246305418624" fill="#c62828" fill-opacity="0.07" stroke="#ef6c00" stroke-width="1.2" stroke-dasharray="none"/>
<text x="478.00011250003126" y="428.2339901477694" fill="#ef6c00" font-weight="600">r=0 rC=0 00000006</text>
<rect x="677.5001687500469" y="272.2906403940929" width="67.49979374994268" height="91.44088669948724" fill="#1976d2" fill-opacity="0.07" stroke="#ef6c00" stroke-width="1.2" stroke-dasharray="none"/>
<text x="680.5001687500469" y="270.2906403940929" fill="#ef6c00" font-weight="600">r=0 rC=0 00000009</text>
<rect x="812.5002062500573" y="261.20689655171776" width="67.49979374994268" height="47.10591133004817" fill="#1976d2" fill-opacity="0.07" stroke="#2e7d32" stroke-width="1.2" stroke-dasharray="none"/>
<text x="815.5002062500573" y="259.20689655171776" fill="#2e7d32" font-weight="600">r=0 rC=0 0000000b</text>
<rect x="407.50009375002605" y="396.98275862070557" width="134.9998124999479" height="135.77586206892624" fill="#c62828" fill-opacity="0.07" stroke="#ef6c00" stroke-width="1.2" stroke-dasharray="none"/>
<text x="410.50009375002605" y="394.98275862070557" fill="#d84315" font-weight="600">r=1 rC=0 00000005</text>
<rect x="610.0001500000417" y="272.2906403940929" width="134.9998124999479" height="135.7758620689878" fill="#1976d2" fill-opacity="0.07" stroke="#ef6c00" stroke-width="1.2" stroke-dasharray="none"/>
<text x="613.0001500000417" y="270.2906403940929" fill="#d84315" font-weight="600">r=1 rC=0 00000008</text>
<rect x="745.0001875000521" y="261.20689655171776" width="134.9998124999479" height="130.23399014776948" fill="#1976d2" fill-opacity="0.07" stroke="#2e7d32" stroke-width="1.2" stroke-dasharray="none"/>
<text x="748.0001875000521" y="259.20689655171776" fill="#d84315" font-weight="600">r=1 rC=0 0000000a</text>
<rect x="542.5001312500365" y="294.4581280788432" width="269.9998499999583" height="193.96551724134963" fill="#1976d2" fill-opacity="0.07" stroke="#2e7d32" stroke-width="1.2" stroke-dasharray="none"/>
<text x="545.5001312500365" y="292.4581280788432" fill="#d84315" font-weight="600">r=2 rC=0 00000007</text>
<rect x="340.00007500002084" y="352.64778325126656" width="269.9998499999583" height="135.77586206892624" fill="#c62828" fill-opacity="0.07" stroke="#2e7d32" stroke-width="1.2" stroke-dasharray="none"/>
<text x="343.00007500002084" y="350.64778325126656" fill="#d84315" font-weight="600">r=3 rC=1 00000004</text>
<rect x="205.00003750001042" y="302.77093596060917" width="202.4998312499531" height="166.25615763544255" fill="#c62828" fill-opacity="0.07" stroke="#2e7d32" stroke-width="1.2" stroke-dasharray="none"/>
<text x="208.00003750001042" y="300.77093596060917" fill="#d84315" font-weight="600">r=4 rC=1 00000002</text>
<rect x="137.5000187500052" y="233.49753694581068" width="134.9998124999479" height="193.96551724141113" fill="#c62828" fill-opacity="0.07" stroke="#2e7d32" stroke-width="1.2" stroke-dasharray="none"/>
<text x="140.5000187500052" y="231.49753694581068" fill="#d84315" font-weight="600">r=5 rC=1 00000001</text>
<rect x="70" y="67.24137931036819" width="134.99981249994792" height="277.0935960590708" fill="#c62828" fill-opacity="0.07" stroke="#2e7d32" stroke-width="1.2" stroke-dasharray="none"/>
<text x="73" y="65.24137931036819" fill="#d84315" font-weight="600">r=6 rC=1 00000000</text>
<line x1="70" y1="233.49753694581068" x2="880" y2="233.49753694581068" stroke="#7b1fa2" stroke-width="1.2" stroke-dasharray="6 4"/>
<text x="876" y="229.49753694581068" text-anchor="end" fill="#7b1fa2" font-weight="600">ref top r=6 : 1.14504</text>
<text x="900" y="34" font-size="13" font-weight="700" fill="#222">Étape 12/12</text>
<text x="900" y="52" fill="#444">Bougie #11 @ 01:55:00</text>
<text x="900" y="66" fill="#444" font-size="10">O=1.14481 H=1.14494</text>
<text x="900" y="78" fill="#444" font-size="10">L=1.14477 C=1.14492</text>
<text x="900" y="96" font-weight="600" fill="#222">État des PriceMoves</text>
<rect x="900" y="101" width="14" height="10" fill="none" stroke="#2e7d32" stroke-width="1.2"/>
<text x="920" y="110" fill="#444">growing</text>
<rect x="900" y="115" width="14" height="10" fill="none" stroke="#ef6c00" stroke-width="1.2"/>
<text x="920" y="124" fill="#444">reference</text>
<rect x="900" y="129" width="14" height="10" fill="none" stroke="#9e9e9e" stroke-width="1.2"/>
<text x="920" y="138" fill="#444">archived</text>
<text x="900" y="158" font-weight="600" fill="#222">Polarité (remplissage)</text>
<rect x="900" y="163" width="14" height="10" fill="#1976d2" fill-opacity="0.25"/>
<text x="920" y="172" fill="#444">up</text>
<rect x="900" y="177" width="14" height="10" fill="#c62828" fill-opacity="0.25"/>
<text x="920" y="186" fill="#444">down</text>
<text x="900" y="208" font-weight="600" fill="#222">12 moves connus</text>
<text x="900" y="222" fill="#444">rang max : 6</text>
<text x="900" y="236" fill="#444" font-size="10">growing=7 reference=5</text>
</svg>