<svg xmlns="http://www.w3.org/2000/svg" width="1100" height="620" viewBox="0 0 1100 620" font-family="ui-monospace, SFMono-Regular, Menlo, monospace" font-size="11">
<rect x="0" y="0" width="1100" height="620" fill="#fafafa"/>
<rect x="70" y="30" width="810" height="540" fill="white" stroke="#666" stroke-width="0.5"/>
<line x1="70" y1="570" x2="880" y2="570" stroke="#eee" stroke-width="0.5"/>
<text x="64" y="573" text-anchor="end" fill="#666">1.14383</text>
<line x1="70" y1="480" x2="880" y2="480" stroke="#eee" stroke-width="0.5"/>
<text x="64" y="483" text-anchor="end" fill="#666">1.14415</text>
<line x1="70" y1="390" x2="880" y2="390" stroke="#eee" stroke-width="0.5"/>
<text x="64" y="393" text-anchor="end" fill="#666">1.14448</text>
<line x1="70" y1="300" x2="880" y2="300" stroke="#eee" stroke-width="0.5"/>
<text x="64" y="303" text-anchor="end" fill="#666">1.14480</text>
<line x1="70" y1="210" x2="880" y2="210" stroke="#eee" stroke-width="0.5"/>
<text x="64" y="213" text-anchor="end" fill="#666">1.14512</text>
<line x1="70" y1="120" x2="880" y2="120" stroke="#eee" stroke-width="0.5"/>
<text x="64" y="123" text-anchor="end" fill="#666">1.14545</text>
<line x1="70" y1="30" x2="880" y2="30" stroke="#eee" stroke-width="0.5"/>
<text x="64" y="33" text-anchor="end" fill="#666">1.14577</text>
<text x="110.4998784999595" y="584" text-anchor="middle" fill="#666">01:00</text>
<text x="110.4998784999595" y="598" text-anchor="middle" fill="#666" font-size="9">#0</text>
<text x="191.49990549996852" y="584" text-anchor="middle" fill="#666">01:05</text>
<text x="191.49990549996852" y="598" text-anchor="middle" fill="#666" font-size="9">#1</text>
<text x="272.4999324999775" y="584" text-anchor="middle" fill="#666">01:10</text>
<text x="272.4999324999775" y="598" text-anchor="middle" fill="#666" font-size="9">#2</text>
<text x="353.4999594999865" y="584" text-anchor="middle" fill="#666">01:15</text>
<text x="353.4999594999865" y="598" text-anchor="middle" fill="#666" font-size="9">#3</text>
<text x="434.49998649999554" y="584" text-anchor="middle" fill="#666">01:20</text>
<text x="434.49998649999554" y="598" text-anchor="middle" fill="#666" font-size="9">#4</text>
<text x="515.5000135000045" y="584" text-anchor="middle" fill="#666">01:25</text>
<text x="515.5000135000045" y="598" text-anchor="middle" fill="#666" font-size="9">#5</text>
<text x="596.5000405000135" y="584" text-anchor="middle" fill="#666">01:30</text>
<text x="596.5000405000135" y="598" text-anchor="middle" fill="#666" font-size="9">#6</text>
<text x="677.5000675000225" y="584" text-anchor="middle" fill="#666">01:35</text>
<text x="677.5000675000225" y="598" text-anchor="middle" fill="#666" font-size="9">#7</text>
<text x="758.5000945000315" y="584" text-anchor="middle" fill="#666">01:40</text>
<text x="758.5000945000315" y="598" text-anchor="middle" fill="#666" font-size="9">#8</text>
<text x="839.5001215000404" y="584" text-anchor="middle" fill="#666">01:45</text>
<text x="839.5001215000404" y="598" text-anchor="middle" fill="#666" font-size="9">#9</text>
<line x1="110.4998784999595" y1="67.24137931036819" x2="110.4998784999595" y2="261.20689655171776" stroke="#ef5350" stroke-width="1"/>
<rect x="86.1998703999568" y="114.34729064041636" width="48.600016200005406" height="119.15024630539432" fill="#ef5350" stroke="#ef5350" stroke-width="0.5"/>
<line x1="191.49990549996852" y1="233.49753694581068" x2="191.49990549996852" y2="344.334975369439" stroke="#ef5350" stroke-width="1"/>
<rect x="167.1998973999658" y="239.039408867029" width="48.600016200005406" height="99.75369458125317" fill="#ef5350" stroke="#ef5350" stroke-width="0.5"/>
<line x1="272.4999324999775" y1="302.77093596060917" x2="272.4999324999775" y2="427.4630541872218" stroke="#ef5350" stroke-width="1"/>
<rect x="248.19992439997478" y="338.7931034482822" width="48.600016200005406" height="49.876847290657395" fill="#ef5350" stroke="#ef5350" stroke-width="0.5"/>
<line x1="353.4999594999865" y1="336.0221674876731" x2="353.4999594999865" y2="457.94334975367656" stroke="#26a69a" stroke-width="1"/>
<rect x="329.19995139998383" y="355.41871921181416" width="48.600016200005406" height="30.480295566516247" fill="#26a69a" stroke="#26a69a" stroke-width="0.5"/>
<line x1="434.49998649999554" y1="352.64778325126656" x2="434.49998649999554" y2="469.0270935960517" stroke="#ef5350" stroke-width="1"/>
<rect x="410.19997839999286" y="352.64778325126656" width="48.600016200005406" height="96.982758620644" fill="#ef5350" stroke="#ef5350" stroke-width="0.5"/>
<line x1="515.5000135000045" y1="396.98275862070557" x2="515.5000135000045" y2="460.7142857142857" stroke="#ef5350" stroke-width="1"/>
<rect x="491.20000540000177" y="444.0886699507538" width="48.600016200005406" height="13.85467980292276" fill="#ef5350" stroke="#ef5350" stroke-width="0.5"/>
<line x1="596.5000405000135" y1="430.2339901477694" x2="596.5000405000135" y2="532.7586206896318" stroke="#ef5350" stroke-width="1"/>
<rect x="572.2000324000107" y="455.1724137931289" width="48.600016200005406" height="30.480295566454743" fill="#ef5350" stroke="#ef5350" stroke-width="0.5"/>
<line x1="677.5000675000225" y1="383.12807881772125" x2="677.5000675000225" y2="488.4236453201928" stroke="#26a69a" stroke-width="1"/>
<rect x="653.2000594000198" y="410.8374384236283" width="48.600016200005406" height="72.04433497540765" fill="#26a69a" stroke="#26a69a" stroke-width="0.5"/>
<line x1="758.5000945000315" y1="352.64778325126656" x2="758.5000945000315" y2="408.0665024630807" stroke="#26a69a" stroke-width="1"/>
<rect x="734.2000864000288" y="360.9605911330325" width="48.600016200005406" height="44.33497536943901" fill="#26a69a" stroke="#26a69a" stroke-width="0.5"/>
<line x1="839.5001215000404" y1="272.2906403940929" x2="839.5001215000404" y2="363.73152709358015" stroke="#26a69a" stroke-width="1"/>
<rect x="815.2001134000377" y="336.0221674876731" width="48.600016200005406" height="22.167487684750256" fill="#26a69a" stroke="#26a69a" stroke-width="0.5"/>
<rect x="313.000081000027" y="336.0221674876731" width="80.99975699991899" height="121.92118226600348" fill="#1976d2" fill-opacity="0.07" stroke="#ef6c00" stroke-width="1.2" stroke-dasharray="none"/>
<text x="316.000081000027" y="334.0221674876731" fill="#ef6c00" font-weight="600">r=0 rC=0 00000003</text>
<rect x="556.000162000054" y="430.2339901477694" width="80.99975699991899" height="102.5246305418624" fill="#c62828" fill-opacity="0.07" stroke="#ef6c00" stroke-width="1.2" stroke-dasharray="none"/>
<text x="559.000162000054" y="428.2339901477694" fill="#ef6c00" font-weight="600">r=0 rC=0 00000006</text>
<rect x="799.000243000081" y="272.2906403940929" width="80.99975699991899" height="91.44088669948724" fill="#1976d2" fill-opacity="0.07" stroke="#2e7d32" stroke-width="1.2" stroke-dasharray="none"/>
<text x="802.000243000081" y="270.2906403940929" fill="#2e7d32" font-weight="600">r=0 rC=0 00000009</text>
<rect x="475.00013500004496" y="396.98275862070557" width="161.99978399992807" height="135.77586206892624" fill="#c62828" fill-opacity="0.07" stroke="#ef6c00" stroke-width="1.2" stroke-dasharray="none"/>
<text x="478.00013500004496" y="394.98275862070557" fill="#d84315" font-weight="600">r=1 rC=0 00000005</text>
<rect x="718.0002160000721" y="272.2906403940929" width="161.9997839999279" height="135.7758620689878" fill="#1976d2" fill-opacity="0.07" stroke="#2e7d32" stroke-width="1.2" stroke-dasharray="none"/>
<text x="721.0002160000721" y="270.2906403940929" fill="#d84315" font-weight="600">r=1 rC=0 00000008</text>
<rect x="637.000189000063" y="352.64778325126656" width="161.99978399992813" height="135.77586206892624" fill="#1976d2" fill-opacity="0.07" stroke="#2e7d32" stroke-width="1.2" stroke-dasharray="none"/>
<text x="640.000189000063" y="350.64778325126656" fill="#d84315" font-weight="600">r=2 rC=0 00000007</text>
<rect x="394.00010800003605" y="352.64778325126656" width="323.9998379999459" height="135.77586206892624" fill="#c62828" fill-opacity="0.07" stroke="#2e7d32" stroke-width="1.2" stroke-dasharray="none"/>
<text x="397.00010800003605" y="350.64778325126656" fill="#d84315" font-weight="600">r=3 rC=1 00000004</text>
<rect x="232.00005400001803" y="302.77093596060917" width="242.999810999937" height="166.25615763544255" fill="#c62828" fill-opacity="0.07" stroke="#2e7d32" stroke-width="1.2" stroke-dasharray="none"/>
<text x="235.00005400001803" y="300.77093596060917" fill="#d84315" font-weight="600">r=4 rC=1 00000002</text>
<rect x="151.00002700000903" y="233.49753694581068" width="161.999783999928" height="193.96551724141113" fill="#c62828" fill-opacity="0.07" stroke="#2e7d32" stroke-width="1.2" stroke-dasharray="none"/>
<text x="154.00002700000903" y="231.49753694581068" fill="#d84315" font-weight="600">r=5 rC=1 00000001</text>
<rect x="70" y="67.24137931036819" width="161.999783999928" height="277.0935960590708" fill="#c62828" fill-opacity="0.07" stroke="#2e7d32" stroke-width="1.2" stroke-dasharray="none"/>
<text x="73" y="65.24137931036819" fill="#d84315" font-weight="600">r=6 rC=1 00000000</text>
<line x1="70" y1="233.49753694581068" x2="880" y2="233.49753694581068" stroke="#7b1fa2" stroke-width="1.2" stroke-dasharray="6 4"/>
<text x="876" y="229.49753694581068" text-anchor="end" fill="#7b1fa2" font-weight="600">ref top r=6 : 1.14504</text>
<text x="900" y="34" font-size="13" font-weight="700" fill="#222">Étape 10/12</text>
<text x="900" y="52" fill="#444">Bougie #9 @ 01:45:00</text>
<text x="900" y="66" fill="#444" font-size="10">O=1.14459 H=1.1449</text>
<text x="900" y="78" fill="#444" font-size="10">L=1.14457 C=1.14467</text>
<text x="900" y="96" font-weight="600" fill="#222">État des PriceMoves</text>
<rect x="900" y="101" width="14" height="10" fill="none" stroke="#2e7d32" stroke-width="1.2"/>
<text x="920" y="110" fill="#444">growing</text>
<rect x="900" y="115" width="14" height="10" fill="none" stroke="#ef6c00" stroke-width="1.2"/>
<text x="920" y="124" fill="#444">reference</text>
<rect x="900" y="129" width="14" height="10" fill="none" stroke="#9e9e9e" stroke-width="1.2"/>
<text x="920" y="138" fill="#444">archived</text>
<text x="900" y="158" font-weight="600" fill="#222">Polarité (remplissage)</text>
<rect x="900" y="163" width="14" height="10" fill="#1976d2" fill-opacity="0.25"/>
<text x="920" y="172" fill="#444">up</text>
<rect x="900" y="177" width="14" height="10" fill="#c62828" fill-opacity="0.25"/>
<text x="920" y="186" fill="#444">down</text>
<text x="900" y="208" font-weight="600" fill="#222">10 moves connus</text>
<text x="900" y="222" fill="#444">rang max : 6</text>
<text x="900" y="236" fill="#444" font-size="10">growing=7 reference=3</text>
</svg>