<svg xmlns="http://www.w3.org/2000/svg" width="1100" height="620" viewBox="0 0 1100 620" font-family="ui-monospace, SFMono-Regular, Menlo, monospace" font-size="11">
<rect x="0" y="0" width="1100" height="620" fill="#fafafa"/>
<rect x="70" y="30" width="810" height="540" fill="white" stroke="#666" stroke-width="0.5"/>
<line x1="70" y1="570" x2="880" y2="570" stroke="#eee" stroke-width="0.5"/>
<text x="64" y="573" text-anchor="end" fill="#666">1.14407</text>
<line x1="70" y1="480.00000000003564" x2="880" y2="480.00000000003564" stroke="#eee" stroke-width="0.5"/>
<text x="64" y="483.00000000003564" text-anchor="end" fill="#666">1.14435</text>
<line x1="70" y1="390" x2="880" y2="390" stroke="#eee" stroke-width="0.5"/>
<text x="64" y="393" text-anchor="end" fill="#666">1.14463</text>
<line x1="70" y1="299.9999999999643" x2="880" y2="299.9999999999643" stroke="#eee" stroke-width="0.5"/>
<text x="64" y="302.9999999999643" text-anchor="end" fill="#666">1.14492</text>
<line x1="70" y1="210" x2="880" y2="210" stroke="#eee" stroke-width="0.5"/>
<text x="64" y="213" text-anchor="end" fill="#666">1.14520</text>
<line x1="70" y1="120.00000000003564" x2="880" y2="120.00000000003564" stroke="#eee" stroke-width="0.5"/>
<text x="64" y="123.00000000003564" text-anchor="end" fill="#666">1.14548</text>
<line x1="70" y1="30" x2="880" y2="30" stroke="#eee" stroke-width="0.5"/>
<text x="64" y="33" text-anchor="end" fill="#666">1.14576</text>
<text x="150.999783999856" y="584" text-anchor="middle" fill="#666">01:00</text>
<text x="150.999783999856" y="598" text-anchor="middle" fill="#666" font-size="9">#0</text>
<text x="312.999891999928" y="584" text-anchor="middle" fill="#666">01:05</text>
<text x="312.999891999928" y="598" text-anchor="middle" fill="#666" font-size="9">#1</text>
<text x="475" y="584" text-anchor="middle" fill="#666">01:10</text>
<text x="475" y="598" text-anchor="middle" fill="#666" font-size="9">#2</text>
<text x="637.000108000072" y="584" text-anchor="middle" fill="#666">01:15</text>
<text x="637.000108000072" y="598" text-anchor="middle" fill="#666" font-size="9">#3</text>
<text x="799.000216000144" y="584" text-anchor="middle" fill="#666">01:20</text>
<text x="799.000216000144" y="598" text-anchor="middle" fill="#666" font-size="9">#4</text>
<line x1="150.999783999856" y1="67.24137931034733" x2="150.999783999856" y2="291.9738406658568" stroke="#ef5350" stroke-width="1"/>
<rect x="102.39975159983439" y="121.81926278240672" width="97.2000648000432" height="138.04994054694873" fill="#ef5350" stroke="#ef5350" stroke-width="0.5"/>
<line x1="312.999891999928" y1="259.86920332935546" x2="312.999891999928" y2="388.28775267536093" stroke="#ef5350" stroke-width="1"/>
<rect x="264.39985959990645" y="266.2901307966985" width="97.2000648000432" height="115.57669441139063" fill="#ef5350" stroke="#ef5350" stroke-width="0.5"/>
<line x1="475" y1="340.1307966706445" x2="475" y2="484.6016646849363" stroke="#ef5350" stroke-width="1"/>
<rect x="426.3999675999784" y="381.86682520808915" width="97.2000648000432" height="57.788347205730986" fill="#ef5350" stroke="#ef5350" stroke-width="0.5"/>
<line x1="637.000108000072" y1="378.6563614744176" x2="637.000108000072" y2="519.9167657550379" stroke="#26a69a" stroke-width="1"/>
<rect x="588.4000756000504" y="401.1296076099758" width="97.2000648000432" height="35.31510107017289" fill="#26a69a" stroke="#26a69a" stroke-width="0.5"/>
<line x1="799.000216000144" y1="397.9191438763755" x2="799.000216000144" y2="532.7586206896527" stroke="#ef5350" stroke-width="1"/>
<rect x="750.4001836001223" y="397.9191438763755" width="97.2000648000432" height="112.36623067771916" fill="#ef5350" stroke="#ef5350" stroke-width="0.5"/>
<rect x="556.000324000216" y="378.6563614744176" width="161.99956799971199" height="141.26040428062026" fill="#1976d2" fill-opacity="0.07" stroke="#ef6c00" stroke-width="1.2" stroke-dasharray="none"/>
<text x="559.000324000216" y="376.6563614744176" fill="#ef6c00" font-weight="600">r=0 rC=0 00000003</text>
<rect x="718.000432000288" y="397.9191438763755" width="161.99956799971199" height="134.83947681327726" fill="#c62828" fill-opacity="0.07" stroke="#2e7d32" stroke-width="1.2" stroke-dasharray="none"/>
<text x="721.000432000288" y="395.9191438763755" fill="#2e7d32" font-weight="600">r=0 rC=0 00000004</text>
<rect x="394.000216000144" y="340.1307966706445" width="485.999783999856" height="192.62782401900824" fill="#c62828" fill-opacity="0.07" stroke="#2e7d32" stroke-width="1.2" stroke-dasharray="none"/>
<text x="397.000216000144" y="338.1307966706445" fill="#2e7d32" font-weight="600">r=1 rC=1 00000002</text>
<rect x="232.000108000072" y="259.86920332935546" width="323.999675999784" height="224.73246135558082" fill="#c62828" fill-opacity="0.07" stroke="#2e7d32" stroke-width="1.2" stroke-dasharray="none"/>
<text x="235.000108000072" y="257.86920332935546" fill="#d84315" font-weight="600">r=2 rC=1 00000001</text>
<rect x="70" y="67.24137931034733" width="323.999675999784" height="321.0463733650136" fill="#c62828" fill-opacity="0.07" stroke="#2e7d32" stroke-width="1.2" stroke-dasharray="none"/>
<text x="73" y="65.24137931034733" fill="#d84315" font-weight="600">r=3 rC=1 00000000</text>
<line x1="70" y1="259.86920332935546" x2="880" y2="259.86920332935546" stroke="#7b1fa2" stroke-width="1.2" stroke-dasharray="6 4"/>
<text x="876" y="255.86920332935546" text-anchor="end" fill="#7b1fa2" font-weight="600">ref top r=3 : 1.14504</text>
<text x="900" y="34" font-size="13" font-weight="700" fill="#222">Étape 5/12</text>
<text x="900" y="52" fill="#444">Bougie #4 @ 01:20:00</text>
<text x="900" y="66" fill="#444" font-size="10">O=1.14461 H=1.14461</text>
<text x="900" y="78" fill="#444" font-size="10">L=1.14419 C=1.14426</text>
<text x="900" y="96" font-weight="600" fill="#222">État des PriceMoves</text>
<rect x="900" y="101" width="14" height="10" fill="none" stroke="#2e7d32" stroke-width="1.2"/>
<text x="920" y="110" fill="#444">growing</text>
<rect x="900" y="115" width="14" height="10" fill="none" stroke="#ef6c00" stroke-width="1.2"/>
<text x="920" y="124" fill="#444">reference</text>
<rect x="900" y="129" width="14" height="10" fill="none" stroke="#9e9e9e" stroke-width="1.2"/>
<text x="920" y="138" fill="#444">archived</text>
<text x="900" y="158" font-weight="600" fill="#222">Polarité (remplissage)</text>
<rect x="900" y="163" width="14" height="10" fill="#1976d2" fill-opacity="0.25"/>
<text x="920" y="172" fill="#444">up</text>
<rect x="900" y="177" width="14" height="10" fill="#c62828" fill-opacity="0.25"/>
<text x="920" y="186" fill="#444">down</text>
<text x="900" y="208" font-weight="600" fill="#222">5 moves connus</text>
<text x="900" y="222" fill="#444">rang max : 3</text>
<text x="900" y="236" fill="#444" font-size="10">growing=4 reference=1</text>
</svg>