<svg xmlns="http://www.w3.org/2000/svg" width="1100" height="620" viewBox="0 0 1100 620" font-family="ui-monospace, SFMono-Regular, Menlo, monospace" font-size="11">
<rect x="0" y="0" width="1100" height="620" fill="#fafafa"/>
<rect x="70" y="30" width="810" height="540" fill="white" stroke="#666" stroke-width="0.5"/>
<line x1="70" y1="570" x2="880" y2="570" stroke="#eee" stroke-width="0.5"/>
<text x="64" y="573" text-anchor="end" fill="#666">1.14383</text>
<line x1="70" y1="480" x2="880" y2="480" stroke="#eee" stroke-width="0.5"/>
<text x="64" y="483" text-anchor="end" fill="#666">1.14415</text>
<line x1="70" y1="390" x2="880" y2="390" stroke="#eee" stroke-width="0.5"/>
<text x="64" y="393" text-anchor="end" fill="#666">1.14448</text>
<line x1="70" y1="300" x2="880" y2="300" stroke="#eee" stroke-width="0.5"/>
<text x="64" y="303" text-anchor="end" fill="#666">1.14480</text>
<line x1="70" y1="210" x2="880" y2="210" stroke="#eee" stroke-width="0.5"/>
<text x="64" y="213" text-anchor="end" fill="#666">1.14512</text>
<line x1="70" y1="120" x2="880" y2="120" stroke="#eee" stroke-width="0.5"/>
<text x="64" y="123" text-anchor="end" fill="#666">1.14545</text>
<line x1="70" y1="30" x2="880" y2="30" stroke="#eee" stroke-width="0.5"/>
<text x="64" y="33" text-anchor="end" fill="#666">1.14577</text>
<text x="114.99986666661728" y="584" text-anchor="middle" fill="#666">01:00</text>
<text x="114.99986666661728" y="598" text-anchor="middle" fill="#666" font-size="9">#0</text>
<text x="204.99989999996296" y="584" text-anchor="middle" fill="#666">01:05</text>
<text x="204.99989999996296" y="598" text-anchor="middle" fill="#666" font-size="9">#1</text>
<text x="294.99993333330866" y="584" text-anchor="middle" fill="#666">01:10</text>
<text x="294.99993333330866" y="598" text-anchor="middle" fill="#666" font-size="9">#2</text>
<text x="384.9999666666543" y="584" text-anchor="middle" fill="#666">01:15</text>
<text x="384.9999666666543" y="598" text-anchor="middle" fill="#666" font-size="9">#3</text>
<text x="475" y="584" text-anchor="middle" fill="#666">01:20</text>
<text x="475" y="598" text-anchor="middle" fill="#666" font-size="9">#4</text>
<text x="565.0000333333458" y="584" text-anchor="middle" fill="#666">01:25</text>
<text x="565.0000333333458" y="598" text-anchor="middle" fill="#666" font-size="9">#5</text>
<text x="655.0000666666914" y="584" text-anchor="middle" fill="#666">01:30</text>
<text x="655.0000666666914" y="598" text-anchor="middle" fill="#666" font-size="9">#6</text>
<text x="745.000100000037" y="584" text-anchor="middle" fill="#666">01:35</text>
<text x="745.000100000037" y="598" text-anchor="middle" fill="#666" font-size="9">#7</text>
<text x="835.0001333333827" y="584" text-anchor="middle" fill="#666">01:40</text>
<text x="835.0001333333827" y="598" text-anchor="middle" fill="#666" font-size="9">#8</text>
<line x1="114.99986666661728" y1="67.24137931036819" x2="114.99986666661728" y2="261.20689655171776" stroke="#ef5350" stroke-width="1"/>
<rect x="87.99985666661357" y="114.34729064041636" width="54.00002000000741" height="119.15024630539432" fill="#ef5350" stroke="#ef5350" stroke-width="0.5"/>
<line x1="204.99989999996296" y1="233.49753694581068" x2="204.99989999996296" y2="344.334975369439" stroke="#ef5350" stroke-width="1"/>
<rect x="177.99988999995927" y="239.039408867029" width="54.00002000000741" height="99.75369458125317" fill="#ef5350" stroke="#ef5350" stroke-width="0.5"/>
<line x1="294.99993333330866" y1="302.77093596060917" x2="294.99993333330866" y2="427.4630541872218" stroke="#ef5350" stroke-width="1"/>
<rect x="267.99992333330493" y="338.7931034482822" width="54.00002000000741" height="49.876847290657395" fill="#ef5350" stroke="#ef5350" stroke-width="0.5"/>
<line x1="384.9999666666543" y1="336.0221674876731" x2="384.9999666666543" y2="457.94334975367656" stroke="#26a69a" stroke-width="1"/>
<rect x="357.9999566666506" y="355.41871921181416" width="54.00002000000741" height="30.480295566516247" fill="#26a69a" stroke="#26a69a" stroke-width="0.5"/>
<line x1="475" y1="352.64778325126656" x2="475" y2="469.0270935960517" stroke="#ef5350" stroke-width="1"/>
<rect x="447.9999899999963" y="352.64778325126656" width="54.00002000000741" height="96.982758620644" fill="#ef5350" stroke="#ef5350" stroke-width="0.5"/>
<line x1="565.0000333333458" y1="396.98275862070557" x2="565.0000333333458" y2="460.7142857142857" stroke="#ef5350" stroke-width="1"/>
<rect x="538.000023333342" y="444.0886699507538" width="54.00002000000741" height="13.85467980292276" fill="#ef5350" stroke="#ef5350" stroke-width="0.5"/>
<line x1="655.0000666666914" y1="430.2339901477694" x2="655.0000666666914" y2="532.7586206896318" stroke="#ef5350" stroke-width="1"/>
<rect x="628.0000566666877" y="455.1724137931289" width="54.00002000000741" height="30.480295566454743" fill="#ef5350" stroke="#ef5350" stroke-width="0.5"/>
<line x1="745.000100000037" y1="383.12807881772125" x2="745.000100000037" y2="488.4236453201928" stroke="#26a69a" stroke-width="1"/>
<rect x="718.0000900000333" y="410.8374384236283" width="54.00002000000741" height="72.04433497540765" fill="#26a69a" stroke="#26a69a" stroke-width="0.5"/>
<line x1="835.0001333333827" y1="352.64778325126656" x2="835.0001333333827" y2="408.0665024630807" stroke="#26a69a" stroke-width="1"/>
<rect x="808.000123333379" y="360.9605911330325" width="54.00002000000741" height="44.33497536943901" fill="#26a69a" stroke="#26a69a" stroke-width="0.5"/>
<rect x="340.00010000003704" y="336.0221674876731" width="89.99973333323459" height="121.92118226600348" fill="#1976d2" fill-opacity="0.07" stroke="#ef6c00" stroke-width="1.2" stroke-dasharray="none"/>
<text x="343.00010000003704" y="334.0221674876731" fill="#ef6c00" font-weight="600">r=0 rC=0 00000003</text>
<rect x="610.0002000000741" y="430.2339901477694" width="89.99973333323453" height="102.5246305418624" fill="#c62828" fill-opacity="0.07" stroke="#ef6c00" stroke-width="1.2" stroke-dasharray="none"/>
<text x="613.0002000000741" y="428.2339901477694" fill="#ef6c00" font-weight="600">r=0 rC=0 00000006</text>
<rect x="790.0002666667655" y="352.64778325126656" width="89.99973333323453" height="55.418719211814164" fill="#1976d2" fill-opacity="0.07" stroke="#2e7d32" stroke-width="1.2" stroke-dasharray="none"/>
<text x="793.0002666667655" y="350.64778325126656" fill="#2e7d32" font-weight="600">r=0 rC=0 00000008</text>
<rect x="520.0001666667283" y="396.98275862070557" width="179.99976666658029" height="135.77586206892624" fill="#c62828" fill-opacity="0.07" stroke="#ef6c00" stroke-width="1.2" stroke-dasharray="none"/>
<text x="523.0001666667283" y="394.98275862070557" fill="#d84315" font-weight="600">r=1 rC=0 00000005</text>
<rect x="700.0002333334197" y="352.64778325126656" width="179.99976666658029" height="135.77586206892624" fill="#1976d2" fill-opacity="0.07" stroke="#2e7d32" stroke-width="1.2" stroke-dasharray="none"/>
<text x="703.0002333334197" y="350.64778325126656" fill="#d84315" font-weight="600">r=1 rC=0 00000007</text>
<rect x="430.00013333338273" y="352.64778325126656" width="359.9998333332716" height="135.77586206892624" fill="#c62828" fill-opacity="0.07" stroke="#2e7d32" stroke-width="1.2" stroke-dasharray="none"/>
<text x="433.00013333338273" y="350.64778325126656" fill="#d84315" font-weight="600">r=2 rC=1 00000004</text>
<rect x="250.00006666669137" y="302.77093596060917" width="269.9997999999259" height="166.25615763544255" fill="#c62828" fill-opacity="0.07" stroke="#2e7d32" stroke-width="1.2" stroke-dasharray="none"/>
<text x="253.00006666669137" y="300.77093596060917" fill="#d84315" font-weight="600">r=3 rC=1 00000002</text>
<rect x="160.0000333333457" y="233.49753694581068" width="179.99976666658023" height="193.96551724141113" fill="#c62828" fill-opacity="0.07" stroke="#2e7d32" stroke-width="1.2" stroke-dasharray="none"/>
<text x="163.0000333333457" y="231.49753694581068" fill="#d84315" font-weight="600">r=4 rC=1 00000001</text>
<rect x="70" y="67.24137931036819" width="179.99976666658026" height="277.0935960590708" fill="#c62828" fill-opacity="0.07" stroke="#2e7d32" stroke-width="1.2" stroke-dasharray="none"/>
<text x="73" y="65.24137931036819" fill="#d84315" font-weight="600">r=5 rC=1 00000000</text>
<line x1="70" y1="233.49753694581068" x2="880" y2="233.49753694581068" stroke="#7b1fa2" stroke-width="1.2" stroke-dasharray="6 4"/>
<text x="876" y="229.49753694581068" text-anchor="end" fill="#7b1fa2" font-weight="600">ref top r=5 : 1.14504</text>
<text x="900" y="34" font-size="13" font-weight="700" fill="#222">Étape 9/12</text>
<text x="900" y="52" fill="#444">Bougie #8 @ 01:40:00</text>
<text x="900" y="66" fill="#444" font-size="10">O=1.14442 H=1.14461</text>
<text x="900" y="78" fill="#444" font-size="10">L=1.14441 C=1.14458</text>
<text x="900" y="96" font-weight="600" fill="#222">État des PriceMoves</text>
<rect x="900" y="101" width="14" height="10" fill="none" stroke="#2e7d32" stroke-width="1.2"/>
<text x="920" y="110" fill="#444">growing</text>
<rect x="900" y="115" width="14" height="10" fill="none" stroke="#ef6c00" stroke-width="1.2"/>
<text x="920" y="124" fill="#444">reference</text>
<rect x="900" y="129" width="14" height="10" fill="none" stroke="#9e9e9e" stroke-width="1.2"/>
<text x="920" y="138" fill="#444">archived</text>
<text x="900" y="158" font-weight="600" fill="#222">Polarité (remplissage)</text>
<rect x="900" y="163" width="14" height="10" fill="#1976d2" fill-opacity="0.25"/>
<text x="920" y="172" fill="#444">up</text>
<rect x="900" y="177" width="14" height="10" fill="#c62828" fill-opacity="0.25"/>
<text x="920" y="186" fill="#444">down</text>
<text x="900" y="208" font-weight="600" fill="#222">9 moves connus</text>
<text x="900" y="222" fill="#444">rang max : 5</text>
<text x="900" y="236" fill="#444" font-size="10">growing=6 reference=3</text>
</svg>